# xmcd
#
# Track frame offsets: 
#        150
#        12289
#        31687
#        46357
#        58812
#        76473
#        95747
#        116891
#        135211
#        150361
#        166033
#        180486
#        208547
#        243037
#        264446
#
# Disc length: 3725 seconds
#
# Revision: 0
# Processed by: cddbd v1.5.2PL0 Copyright (c) Steve Scherf et al.
# Submitted via: ExactAudioCopy v0.95b3
#
DISCID=b20e8b0f
DTITLE=Various Artist - Brazil Lounge_Deluxe
DYEAR=2011
DGENRE=Bossa Nova
TTITLE0=Só com você - Thievery feat. Bebel Gilberto
TTITLE1=Dao dao - Alda Rezende
TTITLE2=Sabe Quem? - Clara Moreno and Joyce
TTITLE3=Every breath you take - Karen Souza
TTITLE4=If you leave me now - Ive Mendes
TTITLE5=É isso aí - Paula Lime
TTITLE6=Em Nagoya eu vi eriko - Seu Jorge
TTITLE7=Invisíveis - Dual Sessions
TTITLE8=Is this love - Groove da Praia
TTITLE9=Fotografia - Celso Mendes Feat. Lua
TTITLE10=O próximo verão - Jingo feat. Aracy Cavalho
TTITLE11=Contrasts - Marcos Valle
TTITLE12=Corcovado - Andy Caldwell
TTITLE13=New dawn - Azymuth
TTITLE14=Àguas de Marco - Os Alquimistas
EXTD=
EXTT0=
EXTT1=
EXTT2=
EXTT3=
EXTT4=
EXTT5=
EXTT6=
EXTT7=
EXTT8=
EXTT9=
EXTT10=
EXTT11=
EXTT12=
EXTT13=
EXTT14=
PLAYORDER=
